<?xml version="1.0" encoding="UTF-8" standalone="no"?>
<!DOCTYPE svg PUBLIC "-//W3C//DTD SVG 1.1//EN" "http://www.w3.org/Graphics/SVG/1.1/DTD/svg11.dtd">
<svg width="100%" height="100%" viewBox="0 0 176 47" version="1.1" xmlns="http://www.w3.org/2000/svg" xmlns:xlink="http://www.w3.org/1999/xlink" xml:space="preserve" xmlns:serif="http://www.serif.com/" style="fill-rule:evenodd;clip-rule:evenodd;stroke-linejoin:round;stroke-miterlimit:2;">
    <g transform="matrix(1,0,0,1,0,-168)">
        <g id="sign-black" serif:id="sign black" transform="matrix(0.88,0,0,0.235,0,168)">
            <rect x="0" y="0" width="200" height="200" style="fill:none;"/>
            <clipPath id="_clip1">
                <rect x="0" y="0" width="200" height="200"/>
            </clipPath>
            <g clip-path="url(#_clip1)">
                <g transform="matrix(1.45455,0,0,2.04255,-19.3182,-104.61)">
                    <g transform="matrix(0.976312,0,0,2.6035,27.0303,-74.9506)">
                        <g transform="matrix(39.0893,0,0,39.0893,39,80)">
                            <path d="M0.375,-0L0.159,-0.553L0.159,-0L0.075,-0L0.075,-0.655L0.211,-0.655L0.423,-0.102L0.423,-0.655L0.507,-0.655L0.507,-0L0.375,-0Z" style="fill-rule:nonzero;"/>
                        </g>
                        <g transform="matrix(39.0893,0,0,39.0893,61.75,80)">
                            <path d="M0.288,-0.667C0.363,-0.667 0.418,-0.648 0.453,-0.611C0.488,-0.574 0.506,-0.521 0.506,-0.452L0.506,-0.203C0.506,-0.134 0.488,-0.081 0.453,-0.044C0.418,-0.007 0.363,0.012 0.288,0.012C0.213,0.012 0.158,-0.007 0.123,-0.044C0.088,-0.081 0.07,-0.134 0.07,-0.203L0.07,-0.452C0.07,-0.521 0.088,-0.574 0.123,-0.611C0.158,-0.648 0.213,-0.667 0.288,-0.667ZM0.288,-0.592C0.244,-0.592 0.211,-0.581 0.189,-0.559C0.166,-0.537 0.155,-0.505 0.155,-0.462L0.155,-0.194C0.155,-0.151 0.166,-0.119 0.189,-0.097C0.211,-0.074 0.244,-0.063 0.288,-0.063C0.332,-0.063 0.365,-0.074 0.388,-0.097C0.41,-0.119 0.421,-0.151 0.421,-0.194L0.421,-0.461C0.421,-0.504 0.41,-0.536 0.388,-0.559C0.365,-0.581 0.332,-0.592 0.288,-0.592Z" style="fill-rule:nonzero;"/>
                        </g>
                        <g transform="matrix(39.0893,0,0,39.0893,91.3015,80)">
                            <path d="M0.318,-0.655L0.519,-0L0.427,-0L0.384,-0.152L0.143,-0.152L0.1,-0L0.013,-0L0.213,-0.655L0.318,-0.655ZM0.264,-0.577L0.164,-0.228L0.363,-0.228L0.264,-0.577Z" style="fill-rule:nonzero;"/>
                        </g>
                        <g transform="matrix(39.0893,0,0,39.0893,112.097,80)">
                            <rect x="0.075" y="-0.655" width="0.085" height="0.655" style="fill-rule:nonzero;"/>
                        </g>
                    </g>
                    <g transform="matrix(0.784033,0,0,2.09075,-1.22335,-1640.5)">
                        <path d="M25.103,848.849C21.016,844.632 18.5,838.886 18.5,832.558C18.5,819.634 28.993,809.141 41.917,809.141C54.841,809.141 65.333,819.634 65.333,832.558C65.333,845.481 54.841,855.974 41.917,855.974C35.773,855.974 30.178,853.603 25.999,849.726C25.812,849.619 25.636,849.485 25.476,849.325C25.33,849.179 25.205,849.019 25.103,848.849ZM56.725,821.612C58.992,824.672 60.333,828.459 60.333,832.558C60.333,842.722 52.081,850.974 41.917,850.974C37.818,850.974 34.031,849.633 30.971,847.366L56.725,821.612ZM53.234,818.032L27.391,843.875C24.953,840.751 23.5,836.822 23.5,832.558C23.5,822.393 31.752,814.141 41.917,814.141C46.182,814.141 50.11,815.594 53.234,818.032Z" style="fill:rgb(190,29,71);"/>
                    </g>
                </g>
            </g>
        </g>
    </g>
</svg>
